<svg width="24" height="24" viewBox="0 0 24 24" fill="none" xmlns="http://www.w3.org/2000/svg">
<path d="M12.92 2.25997L19.43 5.76997C20.19 6.17997 20.19 7.34997 19.43 7.75997L12.92 11.27C12.34 11.58 11.66 11.58 11.08 11.27L4.57 7.75997C3.81 7.34997 3.81 6.17997 4.57 5.76997L11.08 2.25997C11.66 1.94997 12.34 1.94997 12.92 2.25997Z" stroke="#CCB2C8" stroke-width="1.5" stroke-linecap="round" stroke-linejoin="round"/>
<path d="M3.61 10.13L9.66 13.16C10.41 13.54 10.89 14.31 10.89 15.15V20.8701C10.89 21.7001 10.02 22.2301 9.28 21.8601L3.23 18.83C2.48 18.45 2 17.68 2 16.84V11.12C2 10.29 2.87 9.76005 3.61 10.13Z" stroke="#CCB2C8" stroke-width="1.5" stroke-linecap="round" stroke-linejoin="round"/>
<path d="M20.3904 10.13L14.3404 13.16C13.5904 13.54 13.1104 14.31 13.1104 15.15V20.8701C13.1104 21.7001 13.9804 22.2301 14.7204 21.8601L20.7704 18.83C21.5204 18.45 22.0004 17.68 22.0004 16.84V11.12C22.0004 10.29 21.1304 9.76005 20.3904 10.13Z" stroke="#CCB2C8" stroke-width="1.5" stroke-linecap="round" stroke-linejoin="round"/>
</svg>
