<?xml version="1.0" encoding="UTF-8"?>
<svg version="1.1" xmlns="http://www.w3.org/2000/svg" width="256" height="256">
<path d="M0 0 C1.05499695 -0.00960754 2.1099939 -0.01921509 3.19696045 -0.02911377 C4.33240295 -0.03336365 5.46784546 -0.03761353 6.63769531 -0.04199219 C7.81164856 -0.04769226 8.98560181 -0.05339233 10.19512939 -0.05926514 C12.6798818 -0.06871036 15.1646467 -0.07524722 17.64941406 -0.07910156 C21.43739886 -0.08879446 25.22483812 -0.11981814 29.01269531 -0.15136719 C31.42935876 -0.15789882 33.84602609 -0.16314866 36.26269531 -0.16699219 C37.39004089 -0.17933899 38.51738647 -0.19168579 39.67889404 -0.20440674 C49.43464039 -0.17698279 57.39639344 1.83029086 64.53613281 8.98535156 C71.17525207 16.27727125 73.8332429 22.37347757 73.85626221 32.19403076 C73.85923333 32.90234205 73.86220445 33.61065333 73.86526561 34.34042859 C73.87393735 36.71394354 73.87545957 39.08740797 73.87695312 41.4609375 C73.8815824 43.16281237 73.88660721 44.86468621 73.89199829 46.56655884 C73.90511423 51.1906782 73.91156574 55.81478305 73.91600895 60.43891811 C73.91894113 63.32888166 73.92304622 66.21884124 73.92751312 69.1088028 C73.94118627 78.15368085 73.95085368 87.19854985 73.95471501 96.24343753 C73.9591947 106.67902802 73.97673922 117.11448746 74.00571561 127.5500381 C74.02734393 135.61981879 74.03741992 143.68956264 74.03875613 151.759372 C74.03980338 156.57745353 74.04569417 161.39541185 74.06357574 166.21346283 C74.08007618 170.74757187 74.08220236 175.28146532 74.07343674 179.81559372 C74.0726674 181.47640181 74.07699537 183.13722158 74.08689499 184.79800034 C74.14781431 195.65798336 73.74735237 204.22918669 66.71582031 213.16113281 C59.86074413 220.00153003 53.27338961 224.24971887 43.43164062 224.32226562 C42.37664368 224.33187317 41.32164673 224.34148071 40.23468018 224.35137939 C39.09923767 224.35562927 37.96379517 224.35987915 36.79394531 224.36425781 C35.61999207 224.36995789 34.44603882 224.37565796 33.23651123 224.38153076 C30.75175883 224.39097598 28.26699393 224.39751284 25.78222656 224.40136719 C21.99424176 224.41106009 18.20680251 224.44208377 14.41894531 224.47363281 C12.00228186 224.48016444 9.58561454 224.48541429 7.16894531 224.48925781 C6.04159973 224.50160461 4.91425415 224.51395142 3.75274658 224.52667236 C-6.00299977 224.49924842 -13.96475281 222.49197477 -21.10449219 215.33691406 C-27.74361144 208.04499438 -30.40160228 201.94878806 -30.42462158 192.12823486 C-30.4275927 191.41992358 -30.43056383 190.7116123 -30.43362498 189.98183703 C-30.44229673 187.60832208 -30.44381894 185.23485766 -30.4453125 182.86132812 C-30.44994177 181.15945325 -30.45496658 179.45757942 -30.46035767 177.75570679 C-30.47347361 173.13158742 -30.47992512 168.50748257 -30.48436832 163.88334751 C-30.4873005 160.99338397 -30.4914056 158.10342438 -30.4958725 155.21346283 C-30.50954564 146.16858477 -30.51921305 137.12371577 -30.52307439 128.0788281 C-30.52755407 117.64323761 -30.54509859 107.20777817 -30.57407498 96.77222753 C-30.59570331 88.70244684 -30.60577929 80.63270299 -30.60711551 72.56289363 C-30.60816276 67.74481209 -30.61405354 62.92685378 -30.63193512 58.1088028 C-30.64843556 53.57469376 -30.65056173 49.0408003 -30.64179611 44.50667191 C-30.64102678 42.84586382 -30.64535475 41.18504405 -30.65525436 39.52426529 C-30.71617368 28.66428227 -30.31571174 20.09307893 -23.28417969 11.16113281 C-16.4291035 4.32073559 -9.84174899 0.07254676 0 0 Z M-10.22167969 21.91113281 C-13.69197793 27.37948155 -14.53356414 32.61494567 -14.5448761 39.01657104 C-14.54870165 39.6695703 -14.55252719 40.32256956 -14.55646867 40.99535668 C-14.5667133 43.16381792 -14.56282297 45.33201013 -14.55883789 47.50048828 C-14.56318912 49.06325524 -14.56837364 50.62602006 -14.57432556 52.18878174 C-14.58768304 56.42026569 -14.58829783 60.65166015 -14.58576226 64.88316107 C-14.58469027 68.42177867 -14.58958178 71.96037834 -14.59436768 75.49899209 C-14.60545178 83.85074153 -14.60590655 92.20244599 -14.59985352 100.55419922 C-14.59381487 109.15601785 -14.60612447 117.75767286 -14.62742358 126.35946357 C-14.64506535 133.75757158 -14.65103686 141.15562762 -14.64778584 148.55375588 C-14.64597684 152.96660636 -14.64857078 157.37934013 -14.66250038 161.79217148 C-14.67511598 165.94386242 -14.67309953 170.09529916 -14.66008949 174.24698639 C-14.65773221 175.76546695 -14.66042783 177.2839656 -14.66871262 178.80242538 C-15.05222749 191.48423097 -15.05222749 191.48423097 -10.00926685 202.73277092 C-4.09554378 208.20860257 3.22957158 208.47046319 10.83300781 208.46191406 C12.11789597 208.46834175 12.11789597 208.46834175 13.42874146 208.47489929 C15.23227051 208.48061543 17.03582261 208.481163 18.83935547 208.47680664 C21.57592738 208.47364999 24.3114132 208.4971281 27.04785156 208.52246094 C28.80956897 208.52473478 30.57128924 208.52543703 32.33300781 208.52441406 C33.13954803 208.53362381 33.94608826 208.54283356 34.77706909 208.55232239 C40.82412808 208.50388107 47.43218217 207.78437007 52.31173706 203.88618469 C57.13840442 198.57933195 57.96429563 192.22181549 57.97651672 185.30569458 C57.98034227 184.65269532 57.98416782 183.99969606 57.98810929 183.32690895 C57.99835392 181.15844771 57.9944636 178.9902555 57.99047852 176.82177734 C57.99482975 175.25901039 58.00001427 173.69624557 58.00596619 172.13348389 C58.01932366 167.90199993 58.01993845 163.67060548 58.01740289 159.43910456 C58.0163309 155.90048695 58.02122241 152.36188729 58.02600831 148.82327354 C58.0370924 140.4715241 58.03754718 132.11981964 58.03149414 123.76806641 C58.0254555 115.16624778 58.03776509 106.56459277 58.05906421 97.96280205 C58.07670597 90.56469405 58.08267748 83.166638 58.07942647 75.76850975 C58.07761746 71.35565926 58.08021141 66.94292549 58.09414101 62.53009415 C58.1067566 58.37840321 58.10474015 54.22696647 58.09173012 50.07527924 C58.08937283 48.55679868 58.09206845 47.03830003 58.10035324 45.51984024 C58.48386811 32.83803465 58.48386811 32.83803465 53.44090748 21.58949471 C47.5271844 16.11366305 40.20206904 15.85180243 32.59863281 15.86035156 C31.31374466 15.85392387 31.31374466 15.85392387 30.00289917 15.84736633 C28.19937011 15.84165019 26.39581801 15.84110262 24.59228516 15.84545898 C21.85571325 15.84861563 19.12022742 15.82513753 16.38378906 15.79980469 C14.62207166 15.79753084 12.86035139 15.79682859 11.09863281 15.79785156 C9.88882248 15.78403694 9.88882248 15.78403694 8.65457153 15.76994324 C1.92615048 15.82384276 -5.47247375 16.68944781 -10.22167969 21.91113281 Z " fill="#CCB2C8" transform="translate(46.2841796875,15.8388671875)"/>
<path d="M0 0 C1.05499695 -0.00960754 2.1099939 -0.01921509 3.19696045 -0.02911377 C4.33240295 -0.03336365 5.46784546 -0.03761353 6.63769531 -0.04199219 C7.81164856 -0.04769226 8.98560181 -0.05339233 10.19512939 -0.05926514 C12.6798818 -0.06871036 15.1646467 -0.07524722 17.64941406 -0.07910156 C21.43739886 -0.08879446 25.22483812 -0.11981814 29.01269531 -0.15136719 C31.42935876 -0.15789882 33.84602609 -0.16314866 36.26269531 -0.16699219 C37.39004089 -0.17933899 38.51738647 -0.19168579 39.67889404 -0.20440674 C49.43464039 -0.17698279 57.39639344 1.83029086 64.53613281 8.98535156 C71.56798657 16.7086219 73.86210672 23.06054867 73.87695312 33.3828125 C73.88440048 34.62262375 73.88440048 34.62262375 73.89199829 35.88748169 C73.90659121 38.61933224 73.91341763 41.3511247 73.91894531 44.08300781 C73.92469974 45.9862671 73.93045743 47.88952638 73.93621826 49.79278564 C73.94672051 53.78406036 73.95256805 57.77531498 73.95605469 61.76660156 C73.96153353 66.86862073 73.98555184 71.97037224 74.01402664 77.07230759 C74.03269735 81.00495161 74.03786101 84.93753178 74.03939056 88.87021637 C74.04240831 90.75039379 74.05040705 92.63057032 74.06357574 94.51070404 C74.08072685 97.14796501 74.07873388 99.78458012 74.07226562 102.421875 C74.08148041 103.19099213 74.09069519 103.96010925 74.10018921 104.75253296 C74.03488961 113.29827838 71.0186658 120.86750113 64.89160156 126.98144531 C58.34650765 132.94059748 52.35156088 136.25651397 43.43164062 136.32226562 C42.37664368 136.33187317 41.32164673 136.34148071 40.23468018 136.35137939 C39.09923767 136.35562927 37.96379517 136.35987915 36.79394531 136.36425781 C35.61999207 136.36995789 34.44603882 136.37565796 33.23651123 136.38153076 C30.75175883 136.39097598 28.26699393 136.39751284 25.78222656 136.40136719 C21.99424176 136.41106009 18.20680251 136.44208377 14.41894531 136.47363281 C12.00228186 136.48016444 9.58561454 136.48541429 7.16894531 136.48925781 C6.04159973 136.50160461 4.91425415 136.51395142 3.75274658 136.52667236 C-6.00299977 136.49924842 -13.96475281 134.49197477 -21.10449219 127.33691406 C-28.13634594 119.61364373 -30.4304661 113.26171696 -30.4453125 102.93945312 C-30.4502774 102.11291229 -30.45524231 101.28637146 -30.46035767 100.43478394 C-30.47495058 97.70293338 -30.481777 94.97114093 -30.48730469 92.23925781 C-30.49305911 90.33599853 -30.49881681 88.43273925 -30.50457764 86.52947998 C-30.51507988 82.53820527 -30.52092743 78.54695065 -30.52441406 74.55566406 C-30.5298929 69.4536449 -30.55391121 64.35189339 -30.58238602 59.24995804 C-30.60105673 55.31731402 -30.60622039 51.38473385 -30.60774994 47.45204926 C-30.61076769 45.57187184 -30.61876643 43.69169531 -30.63193512 41.81156158 C-30.64908623 39.17430062 -30.64709325 36.53768551 -30.640625 33.90039062 C-30.64983978 33.1312735 -30.65905457 32.36215637 -30.66854858 31.56973267 C-30.60324899 23.02398724 -27.58702517 15.4547645 -21.45996094 9.34082031 C-14.91486703 3.38166814 -8.91992026 0.06575166 0 0 Z M-10.22167969 21.91113281 C-13.78012472 27.51837953 -14.53440168 32.86496638 -14.55883789 39.42236328 C-14.56394882 40.11118591 -14.56905975 40.80000854 -14.57432556 41.50970459 C-14.58812083 43.76600051 -14.58727235 46.02198747 -14.58496094 48.27832031 C-14.58885364 49.86101391 -14.59318948 51.44370647 -14.59794617 53.02639771 C-14.60538692 56.33648064 -14.6051329 59.64645687 -14.59985352 62.95654297 C-14.59406425 67.17844357 -14.61098699 71.39990469 -14.63419819 75.62173271 C-14.6489988 78.8887483 -14.64979862 82.15565961 -14.64668846 85.42270279 C-14.64719858 86.9782816 -14.65237766 88.53386673 -14.66250038 90.08941269 C-15.12838025 103.14158437 -15.12838025 103.14158437 -10.00923157 114.72970581 C-4.10206783 120.21186956 3.23176031 120.47046073 10.83300781 120.46191406 C12.11789597 120.46834175 12.11789597 120.46834175 13.42874146 120.47489929 C15.23227051 120.48061543 17.03582261 120.481163 18.83935547 120.47680664 C21.57592738 120.47364999 24.3114132 120.4971281 27.04785156 120.52246094 C28.80956897 120.52473478 30.57128924 120.52543703 32.33300781 120.52441406 C33.54281815 120.53822868 33.54281815 120.53822868 34.77706909 120.55232239 C40.82412808 120.50388107 47.43218217 119.78437007 52.31173706 115.88618469 C57.25275315 110.45360713 57.96415802 103.96294352 57.99047852 96.89990234 C57.99558945 96.21107971 58.00070038 95.52225708 58.00596619 94.81256104 C58.01976145 92.55626512 58.01891298 90.30027816 58.01660156 88.04394531 C58.02049426 86.46125172 58.02483011 84.87855915 58.02958679 83.29586792 C58.03702755 79.98578499 58.03677352 76.67580875 58.03149414 73.36572266 C58.02570487 69.14382206 58.04262761 64.92236093 58.06583881 60.70053291 C58.08063943 57.43351733 58.08143925 54.16660602 58.07832909 50.89956284 C58.07883921 49.34398402 58.08401828 47.7883989 58.09414101 46.23285294 C58.56002088 33.18068126 58.56002088 33.18068126 53.44087219 21.59255981 C47.53370846 16.11039607 40.19988031 15.85180489 32.59863281 15.86035156 C31.31374466 15.85392387 31.31374466 15.85392387 30.00289917 15.84736633 C28.19937011 15.84165019 26.39581801 15.84110262 24.59228516 15.84545898 C21.85571325 15.84861563 19.12022742 15.82513753 16.38378906 15.79980469 C14.62207166 15.79753084 12.86035139 15.79682859 11.09863281 15.79785156 C9.88882248 15.78403694 9.88882248 15.78403694 8.65457153 15.76994324 C1.92615048 15.82384276 -5.47247375 16.68944781 -10.22167969 21.91113281 Z " fill="#CCB2C8" transform="translate(166.2841796875,103.8388671875)"/>
<path d="M0 0 C0.67062973 -0.00671722 1.34125946 -0.01343445 2.0322113 -0.02035522 C4.23924261 -0.03928156 6.44596887 -0.04325682 8.65307617 -0.04541016 C10.19618349 -0.05184249 11.73928961 -0.05857117 13.28239441 -0.06558228 C16.51446355 -0.07754209 19.74642592 -0.08126451 22.97851562 -0.08007812 C27.10427998 -0.07987516 31.22935378 -0.10715914 35.35495472 -0.14162254 C38.542161 -0.16394778 41.72920267 -0.16791394 44.91647911 -0.16685867 C46.43661564 -0.16920687 47.95675724 -0.17798613 49.47681618 -0.19352341 C58.81953291 -0.28006991 66.03228296 -0.17974229 73.37573242 6.25537109 C73.91456055 6.90634766 74.45338867 7.55732422 75.00854492 8.22802734 C75.5628418 8.87642578 76.11713867 9.52482422 76.68823242 10.19287109 C80.12881077 15.18635913 80.45256048 19.87731146 80.46948242 25.81005859 C80.47946762 27.03616096 80.47946762 27.03616096 80.48965454 28.28703308 C80.49975371 30.01254028 80.50447241 31.73808632 80.50415039 33.46362305 C80.50851378 36.08432474 80.54483322 38.70332743 80.58276367 41.32373047 C80.58863465 43.00666747 80.59260216 44.6896124 80.59448242 46.37255859 C80.60885345 47.14678665 80.62322449 47.92101471 80.63803101 48.71870422 C80.58311154 55.35951005 78.55874037 60.52300808 74.16870117 65.53271484 C73.51772461 66.07154297 72.86674805 66.61037109 72.19604492 67.16552734 C71.54764648 67.71982422 70.89924805 68.27412109 70.23120117 68.84521484 C65.6740088 71.9851798 61.74952397 72.54646433 56.26708984 72.58105469 C55.59646011 72.58777191 54.92583038 72.59448914 54.23487854 72.60140991 C52.02784724 72.62033625 49.82112098 72.62431151 47.61401367 72.62646484 C46.07090635 72.63289718 44.52780024 72.63962586 42.98469543 72.64663696 C39.75262629 72.65859678 36.52066392 72.6623192 33.28857422 72.66113281 C29.16280986 72.66092985 25.03773607 72.68821382 20.91213512 72.72267723 C17.72492884 72.74500247 14.53788718 72.74896862 11.35061073 72.74791336 C9.83047421 72.75026156 8.3103326 72.75904082 6.79027367 72.77457809 C-2.55244306 72.8611246 -9.76519312 72.76079697 -17.10864258 66.32568359 C-17.6474707 65.67470703 -18.18629883 65.02373047 -18.74145508 64.35302734 C-19.29575195 63.70462891 -19.85004883 63.05623047 -20.42114258 62.38818359 C-23.86172093 57.39469556 -24.18547064 52.70374323 -24.20239258 46.77099609 C-24.20904938 45.95359451 -24.21570618 45.13619293 -24.2225647 44.29402161 C-24.23266386 42.56851441 -24.23738257 40.84296836 -24.23706055 39.11743164 C-24.24142394 36.49672994 -24.27774338 33.87772726 -24.31567383 31.25732422 C-24.32154481 29.57438722 -24.32551232 27.89144229 -24.32739258 26.20849609 C-24.34176361 25.43426804 -24.35613464 24.66003998 -24.37094116 23.86235046 C-24.3160217 17.22154464 -22.29165053 12.05804661 -17.90161133 7.04833984 C-17.25063477 6.50951172 -16.5996582 5.97068359 -15.92895508 5.41552734 C-15.28055664 4.86123047 -14.6321582 4.30693359 -13.96411133 3.73583984 C-9.40691895 0.59587489 -5.48243413 0.03459035 0 0 Z M-5.86645508 18.29052734 C-8.91701948 23.62024907 -8.15973915 30.317326 -8.11645508 36.29052734 C-8.12805664 37.89154297 -8.12805664 37.89154297 -8.13989258 39.52490234 C-8.29354222 47.19054683 -8.29354222 47.19054683 -5.86645508 54.29052734 C-0.03603123 57.16481966 6.41686533 56.57799996 12.75854492 56.55615234 C14.58893311 56.55902252 14.58893311 56.55902252 16.45629883 56.56195068 C19.031659 56.56330934 21.6070261 56.55963523 24.18237305 56.55126953 C28.11937883 56.54056586 32.0559283 56.55117602 35.99291992 56.56396484 C38.49812926 56.56264319 41.00333831 56.56008069 43.50854492 56.55615234 C44.68368652 56.56020081 45.85882813 56.56424927 47.06958008 56.56842041 C54.82137196 56.61356515 54.82137196 56.61356515 62.13354492 54.29052734 C65.18410933 48.96080562 64.42682899 42.26372868 64.38354492 36.29052734 C64.3912793 35.22318359 64.39901367 34.15583984 64.40698242 33.05615234 C64.56063206 25.39050785 64.56063206 25.39050785 62.13354492 18.29052734 C56.30312108 15.41623503 49.85022451 16.00305472 43.50854492 16.02490234 C41.67815674 16.02203217 41.67815674 16.02203217 39.81079102 16.019104 C37.23543084 16.01774534 34.66006374 16.02141946 32.0847168 16.02978516 C28.14771102 16.04048883 24.21116155 16.02987867 20.27416992 16.01708984 C17.76896058 16.01841149 15.26375153 16.020974 12.75854492 16.02490234 C11.58340332 16.02085388 10.40826172 16.01680542 9.19750977 16.01263428 C1.44571788 15.96748954 1.44571788 15.96748954 -5.86645508 18.29052734 Z " fill="#CCB2C8" transform="translate(159.866455078125,15.70947265625)"/>
</svg>
