<svg version="1.1" id="Layer_1" xmlns="http://www.w3.org/2000/svg" xmlns:xlink="http://www.w3.org/1999/xlink" x="0px" y="0px"
	 width="100%" viewBox="0 0 256 256" enable-background="new 0 0 256 256" xml:space="preserve">
<path fill="#000000" opacity="1.000000" stroke="none" 
	d="
M1.000000,93.000000 
	C1.000000,62.000004 1.000000,31.500011 1.000000,1.000012 
	C86.333313,1.000008 171.666626,1.000008 256.999939,1.000004 
	C256.999969,86.333290 256.999969,171.666580 257.000000,256.999908 
	C171.666718,256.999939 86.333435,256.999939 1.000077,256.999969 
	C1.000000,202.500000 1.000000,148.000000 1.000000,93.000000 
M26.506828,25.996162 
	C19.798101,32.202785 16.928217,39.861164 16.946703,49.004055 
	C17.055183,102.650902 17.221886,156.299561 16.864355,209.944244 
	C16.757540,225.971008 31.976110,241.682037 48.179745,241.104980 
	C62.323299,240.601288 76.503288,240.781143 90.659332,241.058853 
	C106.175476,241.363251 121.141441,226.164566 121.081131,210.607819 
	C120.871239,156.461761 120.768501,102.312775 121.141495,48.168461 
	C121.252960,31.987818 105.980026,16.348507 89.933136,16.898558 
	C75.788269,17.383411 61.613583,17.022491 47.452160,16.991245 
	C39.439659,16.973566 32.651173,19.817926 26.506828,25.996162 
M162.155182,240.679489 
	C177.790665,240.786331 193.450226,240.389832 209.055115,241.136337 
	C225.907944,241.942551 241.616699,225.901886 241.169159,209.230927 
	C240.512497,184.770432 240.700348,160.274216 241.107132,135.802841 
	C241.370895,119.936035 226.055054,104.412872 210.093613,104.910545 
	C196.286057,105.341049 182.432663,105.488533 168.639038,104.874130 
	C152.065384,104.135918 136.420578,120.090782 136.841461,136.573944 
	C137.457581,160.703308 136.962311,184.860214 137.044907,209.005035 
	C137.055969,212.235855 137.308167,215.555481 138.081421,218.677277 
	C140.411758,228.085175 151.863403,239.608795 162.155182,240.679489 
M177.500031,17.000000 
	C171.342316,17.000000 165.156052,17.378277 159.033249,16.915993 
	C148.462952,16.117918 136.269363,28.457024 136.886841,39.043083 
	C137.428604,48.331303 137.421585,57.700314 136.888519,66.989540 
	C136.283035,77.540749 148.459824,89.425125 159.063202,89.149574 
	C179.020752,88.630936 199.010651,88.637535 218.968674,89.147217 
	C229.538010,89.417130 241.730331,77.542961 241.113129,66.957596 
	C240.571548,57.669357 240.578278,48.300350 241.111511,39.011139 
	C241.717255,28.459236 229.544708,16.421057 218.935684,16.864090 
	C205.478699,17.426052 191.980453,17.000000 177.500031,17.000000 
z"/>
<path fill="#FFFFFF" opacity="1.000000" stroke="none" 
	d="
M26.760458,25.737064 
	C32.651173,19.817926 39.439659,16.973566 47.452160,16.991245 
	C61.613583,17.022491 75.788269,17.383411 89.933136,16.898558 
	C105.980026,16.348507 121.252960,31.987818 121.141495,48.168461 
	C120.768501,102.312775 120.871239,156.461761 121.081131,210.607819 
	C121.141441,226.164566 106.175476,241.363251 90.659332,241.058853 
	C76.503288,240.781143 62.323299,240.601288 48.179745,241.104980 
	C31.976110,241.682037 16.757540,225.971008 16.864355,209.944244 
	C17.221886,156.299561 17.055183,102.650902 16.946703,49.004055 
	C16.928217,39.861164 19.798101,32.202785 26.760458,25.737064 
M104.058289,48.468292 
	C103.728050,46.737576 103.648285,44.910435 103.025352,43.292404 
	C99.890617,35.150208 92.798935,33.323536 85.273048,33.086891 
	C74.450989,32.746601 63.607292,32.859291 52.779362,33.087860 
	C49.631577,33.154305 46.364109,33.892326 43.397385,34.988163 
	C35.009453,38.086460 33.092533,45.390762 33.071285,53.128563 
	C32.932648,103.625504 32.964466,154.123077 33.081360,204.620132 
	C33.089012,207.924530 33.892521,211.353043 34.968117,214.504623 
	C37.807304,222.823608 45.018520,224.643539 52.529560,224.902527 
	C63.515915,225.281357 74.527603,225.130508 85.522751,224.913925 
	C88.504128,224.855209 91.575531,224.062256 94.414421,223.063080 
	C103.162766,219.984024 104.904213,212.448990 104.926643,204.569473 
	C105.070396,154.072571 105.002571,103.575058 104.985748,53.077751 
	C104.985306,51.763744 104.773018,50.449806 104.058289,48.468292 
z"/>
<path fill="#FFFFFF" opacity="1.000000" stroke="none" 
	d="
M161.835190,240.370789 
	C151.863403,239.608795 140.411758,228.085175 138.081421,218.677277 
	C137.308167,215.555481 137.055969,212.235855 137.044907,209.005035 
	C136.962311,184.860214 137.457581,160.703308 136.841461,136.573944 
	C136.420578,120.090782 152.065384,104.135918 168.639038,104.874130 
	C182.432663,105.488533 196.286057,105.341049 210.093613,104.910545 
	C226.055054,104.412872 241.370895,119.936035 241.107132,135.802841 
	C240.700348,160.274216 240.512497,184.770432 241.169159,209.230927 
	C241.616699,225.901886 225.907944,241.942551 209.055115,241.136337 
	C193.450226,240.389832 177.790665,240.786331 161.835190,240.370789 
M193.495636,121.000000 
	C186.831635,121.000000 180.159805,120.792175 173.505249,121.042854 
	C159.240570,121.580215 153.324432,127.332558 153.091354,141.392059 
	C152.740646,162.544540 152.690948,183.713242 153.109711,204.863251 
	C153.384384,218.735550 159.193314,224.424881 173.262405,224.926376 
	C183.744934,225.300034 194.254074,225.130325 204.745758,224.920914 
	C207.912415,224.857712 211.191299,224.234039 214.191925,223.205338 
	C222.897415,220.220856 224.824387,212.763412 224.919357,204.857346 
	C225.161530,184.701553 225.050858,164.540695 224.954285,144.382462 
	C224.936371,140.645203 224.565140,136.869156 223.928436,133.185059 
	C223.027939,127.974678 217.097015,122.570885 211.693405,122.049248 
	C205.979492,121.497673 200.228180,121.333435 193.495636,121.000000 
z"/>
<path fill="#FFFFFF" opacity="1.000000" stroke="none" 
	d="
M178.000015,17.000000 
	C191.980453,17.000000 205.478699,17.426052 218.935684,16.864090 
	C229.544708,16.421057 241.717255,28.459236 241.111511,39.011139 
	C240.578278,48.300350 240.571548,57.669357 241.113129,66.957596 
	C241.730331,77.542961 229.538010,89.417130 218.968674,89.147217 
	C199.010651,88.637535 179.020752,88.630936 159.063202,89.149574 
	C148.459824,89.425125 136.283035,77.540749 136.888519,66.989540 
	C137.421585,57.700314 137.428604,48.331303 136.886841,39.043083 
	C136.269363,28.457024 148.462952,16.117918 159.033249,16.915993 
	C165.156052,17.378277 171.342316,17.000000 178.000015,17.000000 
M213.219177,73.000000 
	C221.762131,72.462540 223.777405,71.627129 224.578552,64.531235 
	C225.447006,56.839317 225.376373,48.891029 224.485977,41.196796 
	C223.726044,34.629822 221.343018,33.133179 214.427292,33.059536 
	C197.455002,32.878803 180.478073,32.872612 163.505997,33.062962 
	C156.639328,33.139973 154.139465,34.689613 153.514496,41.257812 
	C152.756882,49.219929 153.396530,57.360218 154.012558,65.378777 
	C154.185303,67.627098 155.915161,70.531593 157.810333,71.667267 
	C159.977188,72.965729 163.122925,72.931412 165.846848,72.949699 
	C181.322632,73.053551 196.799484,73.000000 213.219177,73.000000 
z"/>
<path fill="#000000" opacity="1.000000" stroke="none" 
	d="
M104.358902,48.802063 
	C104.773018,50.449806 104.985306,51.763744 104.985748,53.077751 
	C105.002571,103.575058 105.070396,154.072571 104.926643,204.569473 
	C104.904213,212.448990 103.162766,219.984024 94.414421,223.063080 
	C91.575531,224.062256 88.504128,224.855209 85.522751,224.913925 
	C74.527603,225.130508 63.515915,225.281357 52.529560,224.902527 
	C45.018520,224.643539 37.807304,222.823608 34.968117,214.504623 
	C33.892521,211.353043 33.089012,207.924530 33.081360,204.620132 
	C32.964466,154.123077 32.932648,103.625504 33.071285,53.128563 
	C33.092533,45.390762 35.009453,38.086460 43.397385,34.988163 
	C46.364109,33.892326 49.631577,33.154305 52.779362,33.087860 
	C63.607292,32.859291 74.450989,32.746601 85.273048,33.086891 
	C92.798935,33.323536 99.890617,35.150208 103.025352,43.292404 
	C103.648285,44.910435 103.728050,46.737576 104.358902,48.802063 
z"/>
<path fill="#000000" opacity="1.000000" stroke="none" 
	d="
M193.994415,121.000000 
	C200.228180,121.333435 205.979492,121.497673 211.693405,122.049248 
	C217.097015,122.570885 223.027939,127.974678 223.928436,133.185059 
	C224.565140,136.869156 224.936371,140.645203 224.954285,144.382462 
	C225.050858,164.540695 225.161530,184.701553 224.919357,204.857346 
	C224.824387,212.763412 222.897415,220.220856 214.191925,223.205338 
	C211.191299,224.234039 207.912415,224.857712 204.745758,224.920914 
	C194.254074,225.130325 183.744934,225.300034 173.262405,224.926376 
	C159.193314,224.424881 153.384384,218.735550 153.109711,204.863251 
	C152.690948,183.713242 152.740646,162.544540 153.091354,141.392059 
	C153.324432,127.332558 159.240570,121.580215 173.505249,121.042854 
	C180.159805,120.792175 186.831635,121.000000 193.994415,121.000000 
z"/>
<path fill="#000000" opacity="1.000000" stroke="none" 
	d="
M212.747574,73.000000 
	C196.799484,73.000000 181.322632,73.053551 165.846848,72.949699 
	C163.122925,72.931412 159.977188,72.965729 157.810333,71.667267 
	C155.915161,70.531593 154.185303,67.627098 154.012558,65.378777 
	C153.396530,57.360218 152.756882,49.219929 153.514496,41.257812 
	C154.139465,34.689613 156.639328,33.139973 163.505997,33.062962 
	C180.478073,32.872612 197.455002,32.878803 214.427292,33.059536 
	C221.343018,33.133179 223.726044,34.629822 224.485977,41.196796 
	C225.376373,48.891029 225.447006,56.839317 224.578552,64.531235 
	C223.777405,71.627129 221.762131,72.462540 212.747574,73.000000 
z"/>
</svg>